# xmcd CD database file
#
# Track frame offsets:
#	150
#	22805
#	46947
#	70765
#
# Disc length: 1244 seconds
#
# Revision: 0
# Processed by: cddbd v1.5PL3 Copyright (c) Steve Scherf et al.
# Submitted via: CDex 1.40Release
#
DISCID=2604da04
DTITLE=鈴木あみ - alone in my room
DYEAR=1900
DGENRE=Pop
TTITLE0=alone in my room
TTITLE1=love the island -TK ragga mix
TTITLE2=alone in my room -club TK mix
TTITLE3=alone in my room -instrumental
EXTD=ID3G: 13
EXTT0=
EXTT1=
EXTT2=
EXTT3=
PLAYORDER=
